<svg width="161" height="68" viewBox="0 0 161 68" fill="none" xmlns="http://www.w3.org/2000/svg">
<path d="M2.02273 31V7.72727H17.7045V11.7841H6.94318V17.3295H16.8977V21.3864H6.94318V26.9432H17.75V31H2.02273ZM29.8665 31H21.6165V7.72727H29.9347C32.2756 7.72727 34.2907 8.19318 35.9801 9.125C37.6695 10.0492 38.9688 11.3788 39.8778 13.1136C40.7945 14.8485 41.2528 16.9242 41.2528 19.3409C41.2528 21.7652 40.7945 23.8485 39.8778 25.5909C38.9688 27.3333 37.6619 28.6705 35.9574 29.6023C34.2604 30.5341 32.2301 31 29.8665 31ZM26.5369 26.7841H29.6619C31.1165 26.7841 32.34 26.5265 33.3324 26.0114C34.3324 25.4886 35.0824 24.6818 35.5824 23.5909C36.09 22.4924 36.3438 21.0758 36.3438 19.3409C36.3438 17.6212 36.09 16.2159 35.5824 15.125C35.0824 14.0341 34.3362 13.2311 33.3438 12.7159C32.3513 12.2008 31.1278 11.9432 29.6733 11.9432H26.5369V26.7841ZM59.2727 7.72727H64.1932V22.8409C64.1932 24.5379 63.7879 26.0227 62.9773 27.2955C62.1742 28.5682 61.0492 29.5606 59.6023 30.2727C58.1553 30.9773 56.4697 31.3295 54.5455 31.3295C52.6136 31.3295 50.9242 30.9773 49.4773 30.2727C48.0303 29.5606 46.9053 28.5682 46.1023 27.2955C45.2992 26.0227 44.8977 24.5379 44.8977 22.8409V7.72727H49.8182V22.4205C49.8182 23.3068 50.0114 24.0947 50.3977 24.7841C50.7917 25.4735 51.3447 26.0152 52.0568 26.4091C52.7689 26.803 53.5985 27 54.5455 27C55.5 27 56.3295 26.803 57.0341 26.4091C57.7462 26.0152 58.2955 25.4735 58.6818 24.7841C59.0758 24.0947 59.2727 23.3068 59.2727 22.4205V7.72727ZM88.7756 15.875H83.7983C83.7074 15.2311 83.5218 14.6591 83.2415 14.1591C82.9612 13.6515 82.6013 13.2197 82.1619 12.8636C81.7225 12.5076 81.215 12.2348 80.6392 12.0455C80.071 11.8561 79.4536 11.7614 78.7869 11.7614C77.5824 11.7614 76.5331 12.0606 75.6392 12.6591C74.7453 13.25 74.0521 14.1136 73.5597 15.25C73.0672 16.3788 72.821 17.75 72.821 19.3636C72.821 21.0227 73.0672 22.4167 73.5597 23.5455C74.0597 24.6742 74.7566 25.5265 75.6506 26.1023C76.5445 26.678 77.5786 26.9659 78.7528 26.9659C79.4119 26.9659 80.0218 26.8788 80.5824 26.7045C81.1506 26.5303 81.6544 26.2765 82.0938 25.9432C82.5331 25.6023 82.8968 25.1894 83.1847 24.7045C83.4801 24.2197 83.6847 23.6667 83.7983 23.0455L88.7756 23.0682C88.6468 24.1364 88.3248 25.1667 87.8097 26.1591C87.3021 27.1439 86.6165 28.0265 85.7528 28.8068C84.8968 29.5795 83.8741 30.1932 82.6847 30.6477C81.5028 31.0947 80.1657 31.3182 78.6733 31.3182C76.5975 31.3182 74.7415 30.8485 73.1051 29.9091C71.4763 28.9697 70.1884 27.6098 69.2415 25.8295C68.3021 24.0492 67.8324 21.8939 67.8324 19.3636C67.8324 16.8258 68.3097 14.6667 69.2642 12.8864C70.2188 11.1061 71.5142 9.75 73.1506 8.81818C74.7869 7.87879 76.6278 7.40909 78.6733 7.40909C80.0218 7.40909 81.2718 7.59848 82.4233 7.97727C83.5824 8.35606 84.6089 8.90909 85.5028 9.63636C86.3968 10.3561 87.1241 11.2386 87.6847 12.2841C88.2528 13.3295 88.6165 14.5265 88.7756 15.875ZM95.8778 31H90.6051L98.6392 7.72727H104.98L113.003 31H107.73L101.901 13.0455H101.719L95.8778 31ZM95.5483 21.8523H108.003V25.6932H95.5483V21.8523ZM115.804 31V7.72727H124.986C126.743 7.72727 128.243 8.04167 129.486 8.67045C130.736 9.29167 131.687 10.1742 132.338 11.3182C132.997 12.4545 133.327 13.7917 133.327 15.3295C133.327 16.875 132.993 18.2045 132.327 19.3182C131.66 20.4242 130.694 21.2727 129.429 21.8636C128.171 22.4545 126.649 22.75 124.861 22.75H118.713V18.7955H124.065C125.005 18.7955 125.785 18.6667 126.406 18.4091C127.027 18.1515 127.49 17.7652 127.793 17.25C128.103 16.7348 128.259 16.0947 128.259 15.3295C128.259 14.5568 128.103 13.9053 127.793 13.375C127.49 12.8447 127.024 12.4432 126.395 12.1705C125.774 11.8902 124.99 11.75 124.043 11.75H120.724V31H115.804ZM128.372 20.4091L134.156 31H128.724L123.065 20.4091H128.372ZM136.804 31V7.72727H152.486V11.7841H141.724V17.3295H151.679V21.3864H141.724V26.9432H152.531V31H136.804Z" fill="#307B74"/>
<path d="M12.2896 40.9883C57.3828 39.7264 103.033 38.2826 148.099 37.5407" stroke="#FF9D01" stroke-width="3" stroke-linecap="round"/>
<path d="M46.1066 48.6298C66.0257 49.0897 85.7579 46.2649 105.697 46.5319C112.952 46.6291 119.559 46.1729 126.712 46.5187" stroke="#FF9D01" stroke-width="3" stroke-linecap="round"/>
</svg>
